<svg width="24" height="24" viewBox="0 0 24 24" fill="none" xmlns="http://www.w3.org/2000/svg">
<path fill-rule="evenodd" clip-rule="evenodd" d="M5.36237 14.6606C2.44566 14.6606 0.0859375 12.2744 0.0859375 9.35764C0.0859375 6.44092 2.47217 4.05469 5.38889 4.05469C8.30561 4.05469 10.6918 6.44092 10.6918 9.35764C10.6918 15.2174 5.9457 19.9635 0.0859375 19.9635C0.0861224 19.9635 3.55951 18.6643 5.36237 14.6606ZM13.3433 9.35764C13.3433 6.44092 15.7295 4.05469 18.6463 4.05469C21.563 4.05469 23.9492 6.44092 23.9492 9.35764C23.9492 15.2174 19.2031 19.9635 13.3433 19.9635C13.3433 19.9635 16.8167 18.6643 18.6198 14.6606C15.703 14.6606 13.3433 12.2742 13.3433 9.35764Z" fill="#FEAE0C"/>
</svg>
